# File created by Blade
# Date/Time:  Tue Jan 27 20:07:51 2015
# Frame Rate: 120.000 fps
#------------------------------------------------------
:FULLY-SPECIFIED
:DEGREES
2692
root 5.412235 32.862232 -4.960925 10.617539 -39.573812 -15.434828
Spine 2.000455 24.774073 -1.064683
Head 15.752935 -3.054048 6.170860
LeftShoulder -14.495547 0.708652 29.680334
LeftArm -18.752964 -35.429156 -69.219318
LeftForeArm -30.594955 -0.000000 123.286823
LeftHand 11.091897 -0.000000 -21.087396
LeftHandThumb1 -26.253704 0.000000 33.147579
RightShoulder -12.793790 -8.681676 -22.580392
RightArm 18.784407 -30.647976 93.337672
RightForeArm -15.221056 0.000000 18.386692
RightHand 17.269916 -0.000000 1.193709
RightHandThumb1 -24.326973 -0.000000 -32.862282
LeftUpLeg 5.532629 15.125535 2.184390
LeftLeg -3.613538 -0.000000 0.000000
LeftFoot -21.105572 23.049066 -19.456838
LeftToeBase 21.539795 -0.000000 -0.000000
RightUpLeg 9.601491 -55.108601 -42.479507
RightLeg 70.814164 -0.000000 -0.000000
RightFoot 25.533273 -28.256094 21.627303
RightToeBase 15.479858 -0.000000 -0.000000
2693
root 5.400502 32.865355 -4.959566 10.667693 -39.435672 -15.425658
Spine 1.988809 24.759806 -1.097242
Head 15.656936 -3.133510 6.164522
LeftShoulder -14.466878 0.620823 29.690754
LeftArm -18.796206 -35.506461 -69.106661
LeftForeArm -30.608822 -0.000000 123.214102
LeftHand 11.085657 -0.000000 -21.130889
LeftHandThumb1 -26.253704 0.000000 33.147579
RightShoulder -12.813031 -8.716410 -22.564536
RightArm 18.768979 -30.613703 93.314539
RightForeArm -15.249833 -0.000000 18.351177
RightHand 17.274562 -0.000000 1.231702
RightHandThumb1 -24.326973 -0.000000 -32.862282
LeftUpLeg 5.447999 15.079339 2.201594
LeftLeg -3.590280 -0.000000 0.000000
LeftFoot -20.943431 23.101311 -19.213731
LeftToeBase 20.814290 -0.000000 -0.000000
RightUpLeg 9.596283 -55.024129 -42.359303
RightLeg 70.750388 -0.000000 -0.000000
RightFoot 25.655891 -28.161222 21.432539
RightToeBase 15.807056 -0.000000 -0.000000
2694
root 5.387176 32.868920 -4.956732 10.707802 -39.267760 -15.424676
Spine 1.986474 24.715692 -1.107331
Head 15.578907 -3.197217 6.161965
LeftShoulder -14.443922 0.541965 29.691786
LeftArm -18.817529 -35.580812 -68.997541
LeftForeArm -30.612192 -0.000000 123.132355
LeftHand 11.155304 -0.000000 -21.194308
LeftHandThumb1 -26.253704 0.000000 33.147579
RightShoulder -12.822601 -8.752422 -22.547210
RightArm 18.749869 -30.582513 93.276296
RightForeArm -15.133973 0.000000 18.333868
RightHand 17.230153 -0.000000 1.157800
RightHandThumb1 -24.326973 -0.000000 -32.862282
LeftUpLeg 5.377148 15.051706 2.246495
LeftLeg -3.555258 -0.000000 0.000000
LeftFoot -21.060417 22.938774 -19.430902
LeftToeBase 21.102093 -0.000000 -0.000000
RightUpLeg 9.681054 -54.942779 -42.286554
RightLeg 70.704185 -0.000000 -0.000000
RightFoot 25.685622 -28.089183 21.483287
RightToeBase 15.580840 -0.000000 -0.000000
2695
root 5.376462 32.870851 -4.953621 10.768239 -39.115041 -15.383434
Spine 1.922924 24.625380 -1.179454
Head 15.522169 -3.209977 6.147145
LeftShoulder -14.468627 0.501705 29.697775
LeftArm -18.837630 -35.645377 -68.863760
LeftForeArm -30.615869 -0.000000 123.032665
LeftHand 11.200032 -0.000000 -21.051345
LeftHandThumb1 -26.253704 0.000000 33.147579
RightShoulder -12.783615 -8.722849 -22.553994
RightArm 18.659826 -30.523186 93.302874
RightForeArm -15.054949 0.000000 18.296474
RightHand 17.236187 -0.000000 1.017901
RightHandThumb1 -24.326973 -0.000000 -32.862282
LeftUpLeg 5.264451 15.088355 2.242685
LeftLeg -3.533097 -0.000000 0.000000
LeftFoot -21.002768 22.795366 -19.398925
LeftToeBase 21.014314 -0.000000 -0.000000
RightUpLeg 9.657644 -54.857012 -42.175708
RightLeg 70.744308 -0.000000 -0.000000
RightFoot 25.686811 -27.996289 21.579955
RightToeBase 15.680599 -0.000000 -0.000000
2696
root 5.363868 32.872723 -4.950524 10.824928 -38.947731 -15.366611
Spine 1.881243 24.532261 -1.218151
Head 15.474485 -3.242740 6.145923
LeftShoulder -14.506838 0.484256 29.696347
LeftArm -18.812965 -35.696357 -68.760192
LeftForeArm -30.686096 -0.000000 122.929691
LeftHand 11.214147 -0.000000 -21.054494
LeftHandThumb1 -26.253704 0.000000 33.147579
RightShoulder -12.724626 -8.745930 -22.554133
RightArm 18.604489 -30.376798 93.332913
RightForeArm -15.119901 -0.000000 18.263244
RightHand 17.252122 0.000000 0.910863
RightHandThumb1 -24.326973 -0.000000 -32.862282
LeftUpLeg 5.172874 15.132441 2.265478
LeftLeg -3.512412 -0.000000 0.000000
LeftFoot -20.976599 22.626323 -19.381960
LeftToeBase 21.034967 -0.000000 -0.000000
RightUpLeg 9.647786 -54.717356 -42.032410
RightLeg 70.867211 -0.000000 -0.000000
RightFoot 25.657373 -27.878915 21.664633
RightToeBase 15.637571 -0.000000 -0.000000
2697
root 5.348714 32.874453 -4.945844 10.894864 -38.755302 -15.347025
Spine 1.791814 24.478168 -1.272605
Head 15.463163 -3.324317 6.160854
LeftShoulder -14.488923 0.462554 29.708339
LeftArm -18.770004 -35.732829 -68.657329
LeftForeArm -30.745184 -0.000000 122.812786
LeftHand 11.257737 -0.000000 -21.126458
LeftHandThumb1 -26.253704 0.000000 33.147579
RightShoulder -12.718533 -8.810193 -22.539553
RightArm 18.557222 -30.279452 93.346913
RightForeArm -15.228478 -0.000000 18.214956
RightHand 17.312417 -0.000000 0.909186
RightHandThumb1 -24.326973 -0.000000 -32.862282
LeftUpLeg 5.074717 15.196325 2.290988
LeftLeg -3.510032 -0.000000 0.000000
LeftFoot -20.933379 22.399257 -19.382736
LeftToeBase 21.138500 -0.000000 -0.000000
RightUpLeg 9.622785 -54.576445 -41.892994
RightLeg 71.160232 -0.000000 -0.000000
RightFoot 25.670618 -27.626837 21.485598
RightToeBase 15.799425 -0.000000 -0.000000
2698
root 5.332765 32.876593 -4.943429 10.979359 -38.551762 -15.329421
Spine 1.660812 24.476331 -1.352047
Head 15.506170 -3.423872 6.269312
LeftShoulder -14.401860 0.419063 29.742236
LeftArm -18.723213 -35.773615 -68.561745
LeftForeArm -30.780141 -0.000000 122.710091
LeftHand 11.321765 -0.000000 -21.154650
LeftHandThumb1 -26.253704 0.000000 33.147579
RightShoulder -12.753452 -8.876528 -22.496695
RightArm 18.486135 -30.206869 93.347899
RightForeArm -15.279712 -0.000000 18.167190
RightHand 17.358061 -0.000000 0.950078
RightHandThumb1 -24.326973 -0.000000 -32.862282
LeftUpLeg 4.961890 15.259842 2.314592
LeftLeg -3.516494 -0.000000 0.000000
LeftFoot -20.731190 22.256465 -19.108248
LeftToeBase 20.852889 -0.000000 -0.000000
RightUpLeg 9.551807 -54.381507 -41.696321
RightLeg 71.638343 -0.000000 -0.000000
RightFoot 25.351618 -27.492167 21.793283
RightToeBase 16.608728 -0.000000 -0.000000
2699
root 5.318858 32.880484 -4.945129 11.084693 -38.336382 -15.317683
Spine 1.517564 24.455921 -1.429027
Head 15.551481 -3.536783 6.356585
LeftShoulder -14.328827 0.356676 29.769075
LeftArm -18.688039 -35.793156 -68.464785
LeftForeArm -30.832079 0.000000 122.626136
LeftHand 11.331431 -0.000000 -21.279137
LeftHandThumb1 -26.253704 0.000000 33.147579
RightShoulder -12.783838 -8.979076 -22.440796
RightArm 18.493024 -30.156019 93.296609
RightForeArm -15.206285 -0.000000 18.118451
RightHand 17.310318 0.000000 1.068111
RightHandThumb1 -24.326973 -0.000000 -32.862282
LeftUpLeg 4.816632 15.313230 2.343598
LeftLeg -3.514325 -0.000000 0.000000
LeftFoot -20.766323 21.986005 -19.264423
LeftToeBase 21.472433 -0.000000 -0.000000
RightUpLeg 9.350570 -54.120973 -41.381630
RightLeg 72.375109 -0.000000 -0.000000
RightFoot 25.403432 -27.216039 21.615527
RightToeBase 16.892707 -0.000000 -0.000000
2700
root 5.298804 32.885862 -4.942361 11.187374 -38.104537 -15.328784
Spine 1.363979 24.335582 -1.486438
Head 15.633617 -3.589718 6.439462
LeftShoulder -14.364157 0.370368 29.767285
LeftArm -18.573902 -35.753262 -68.385280
LeftForeArm -30.879545 0.000000 122.551720
LeftHand 11.337336 -0.000000 -21.317891
LeftHandThumb1 -26.253704 0.000000 33.147579
RightShoulder -12.748101 -9.054014 -22.395682
RightArm 18.516760 -30.123485 93.258459
RightForeArm -15.253645 -0.000000 17.992740
RightHand 17.334904 -0.000000 1.235467
RightHandThumb1 -24.326973 -0.000000 -32.862282
LeftUpLeg 4.721320 15.393374 2.406585
LeftLeg -3.566699 -0.000000 0.000000
LeftFoot -20.649067 21.815574 -19.187586
LeftToeBase 21.128383 -0.000000 -0.000000
RightUpLeg 9.208966 -53.794949 -41.083707
RightLeg 73.310810 -0.000000 -0.000000
RightFoot 25.587491 -26.877745 21.457936
RightToeBase 16.723611 -0.000000 -0.000000
2701
root 5.280263 32.891507 -4.940543 11.297199 -37.885548 -15.339962
Spine 1.195829 24.258458 -1.554028
Head 15.723600 -3.674066 6.547209
LeftShoulder -14.382936 0.347975 29.773800
LeftArm -18.477147 -35.697739 -68.315972
LeftForeArm -30.975876 -0.000000 122.501960
LeftHand 11.288232 -0.000000 -21.372572
LeftHandThumb1 -26.253704 0.000000 33.147579
RightShoulder -12.753393 -9.051743 -22.360012
RightArm 18.463231 -30.124895 93.251509
RightForeArm -15.314723 -0.000000 17.834270
RightHand 17.403975 -0.000000 1.282595
RightHandThumb1 -24.326973 -0.000000 -32.862282
LeftUpLeg 4.633583 15.364454 2.456119
LeftLeg -3.633480 -0.000000 0.000000
LeftFoot -20.464145 21.705261 -19.000922
LeftToeBase 20.859539 -0.000000 -0.000000
RightUpLeg 8.953977 -53.404268 -40.721159
RightLeg 74.507280 -0.000000 -0.000000
RightFoot 25.766518 -26.789862 21.821961
RightToeBase 17.605394 -0.000000 -0.000000
2702
root 5.254526 32.901498 -4.940514 11.434830 -37.586564 -15.395784
Spine 1.006896 24.130894 -1.588652
Head 15.843629 -3.798232 6.679094
LeftShoulder -14.390703 0.293483 29.776563
LeftArm -18.403660 -35.594073 -68.226316
LeftForeArm -31.010286 0.000000 122.495089
LeftHand 11.266183 -0.000000 -21.368688
LeftHandThumb1 -26.253704 0.000000 33.147579
RightShoulder -12.784986 -9.076744 -22.290325
RightArm 18.404345 -30.110610 93.245385
RightForeArm -15.329996 -0.000000 17.713318
RightHand 17.402308 0.000000 1.241096
RightHandThumb1 -24.326973 -0.000000 -32.862282
LeftUpLeg 4.527994 15.301125 2.571202
LeftLeg -3.702140 -0.000000 0.000000
LeftFoot -20.476039 21.540538 -19.151360
LeftToeBase 21.153555 -0.000000 -0.000000
RightUpLeg 8.830418 -53.078178 -40.373358
RightLeg 75.887606 -0.000000 -0.000000
RightFoot 26.472190 -26.531910 21.537242
RightToeBase 17.171218 -0.000000 -0.000000
2703
root 5.225516 32.911862 -4.933278 11.496914 -37.260679 -15.459937
Spine 0.909828 23.974980 -1.552369
Head 15.955041 -3.912689 6.773605
LeftShoulder -14.441862 0.268705 29.747255
LeftArm -18.252887 -35.452977 -68.198066
LeftForeArm -31.014100 -0.000000 122.498066
LeftHand 11.267557 -0.000000 -21.362724
LeftHandThumb1 -26.253704 0.000000 33.147579
RightShoulder -12.810597 -9.104077 -22.242070
RightArm 18.344933 -30.099040 93.243694
RightForeArm -15.291337 -0.000000 17.599071
RightHand 17.322519 -0.000000 1.011283
RightHandThumb1 -24.326973 -0.000000 -32.862282
LeftUpLeg 4.519024 15.245347 2.715358
LeftLeg -3.778376 -0.000000 0.000000
LeftFoot -20.353051 21.402854 -19.065302
LeftToeBase 21.146508 -0.000000 -0.000000
RightUpLeg 8.927736 -52.724889 -40.210310
RightLeg 77.432723 -0.000000 -0.000000
RightFoot 27.516169 -26.203625 21.054019
RightToeBase 16.375772 -0.000000 -0.000000
2704
root 5.197602 32.923168 -4.930265 11.583730 -36.921238 -15.503873
Spine 0.770856 23.832724 -1.566235
Head 16.034098 -4.081425 6.903540
LeftShoulder -14.500296 0.221130 29.743241
LeftArm -18.075584 -35.272467 -68.212086
LeftForeArm -30.959454 -0.000000 122.520840
LeftHand 11.287486 0.000000 -21.344354
LeftHandThumb1 -26.253704 0.000000 33.147579
RightShoulder -12.852916 -9.162822 -22.179181
RightArm 18.281750 -29.996598 93.275053
RightForeArm -15.297542 -0.000000 17.499702
RightHand 17.318722 0.000000 0.960134
RightHandThumb1 -24.326973 -0.000000 -32.862282
LeftUpLeg 4.436765 15.190225 2.836320
LeftLeg -3.809409 -0.000000 0.000000
LeftFoot -20.227029 21.249006 -18.956183
LeftToeBase 21.129109 -0.000000 -0.000000
RightUpLeg 8.981136 -52.336133 -40.009376
RightLeg 79.198082 -0.000000 -0.000000
RightFoot 28.080208 -26.122078 21.316034
RightToeBase 16.989189 -0.000000 -0.000000
